<?xml version="1.0" standalone="no"?><!DOCTYPE svg PUBLIC "-//W3C//DTD SVG 1.1//EN" "http://www.w3.org/Graphics/SVG/1.1/DTD/svg11.dtd"><svg t="1548234899863" class="icon" style="" viewBox="0 0 1024 1024" version="1.1" xmlns="http://www.w3.org/2000/svg" p-id="4103" xmlns:xlink="http://www.w3.org/1999/xlink" width="128" height="128"><defs><style type="text/css"></style></defs><path d="M748.8 768h-512c-12.8 0-25.6-12.8-25.6-25.6V313.6c0-12.8 12.8-25.6 25.6-25.6s25.6 12.8 25.6 25.6v396.8h486.4c12.8 0 25.6 12.8 25.6 25.6 0 19.2-12.8 32-25.6 32z m-358.4-83.2h-51.2c-12.8 0-25.6-12.8-25.6-25.6V364.8c0-12.8 12.8-25.6 25.6-25.6h51.2c12.8 0 25.6 12.8 25.6 25.6v294.4c0 12.8-12.8 25.6-25.6 25.6z m140.8 0h-51.2c-12.8 0-25.6-12.8-25.6-25.6v-51.2c0-12.8 12.8-25.6 25.6-25.6h51.2c12.8 0 25.6 12.8 25.6 25.6v51.2c6.4 12.8-6.4 25.6-25.6 25.6z m128-121.6C576 563.2 512 492.8 512 409.6 512 326.4 576 256 659.2 256c83.2 0 153.6 70.4 153.6 153.6 0 83.2-70.4 153.6-153.6 153.6z m57.6-256l-57.6 83.2-51.2-83.2-25.6 19.2 44.8 70.4h-44.8v25.6h57.6v38.4h-57.6v25.6h57.6v57.6h32V473.6h57.6v-19.2h-57.6v-38.4h57.6v-25.6h-44.8l44.8-70.4-12.8-12.8z" fill="#3F51B5" p-id="4104"></path><path d="M512 19.2C236.8 19.2 19.2 236.8 19.2 512s224 492.8 492.8 492.8c275.2 0 492.8-224 492.8-492.8S787.2 19.2 512 19.2z m0 947.2C262.4 966.4 57.6 761.6 57.6 512 57.6 262.4 262.4 57.6 512 57.6c249.6 0 454.4 204.8 454.4 454.4 0 249.6-204.8 454.4-454.4 454.4z" fill="#3F51B5" p-id="4105"></path></svg>